<svg version="1.2" xmlns="http://www.w3.org/2000/svg" viewBox="0 0 900 450" width="1000" height="500"><style>.a{fill:#00101c;stroke:#00101c;stroke-linejoin:bevel}.b{fill:#297ea6;stroke:#297ea6;stroke-linejoin:bevel}.c{fill:#246688;stroke:#246688;stroke-linejoin:bevel}.d{fill:#081a28;stroke:#081a28;stroke-linejoin:bevel}.e{fill:#277297;stroke:#277297;stroke-linejoin:bevel}.f{fill:#112e42;stroke:#112e42;stroke-linejoin:bevel}.g{fill:#19435d;stroke:#19435d;stroke-linejoin:bevel}.h{fill:#0c2435;stroke:#0c2435;stroke-linejoin:bevel}.i{fill:#1d4e6b;stroke:#1d4e6b;stroke-linejoin:bevel}.j{fill:#15384f;stroke:#15384f;stroke-linejoin:bevel}.k{fill:#205a7a;stroke:#205a7a;stroke-linejoin:bevel}.l{fill:#138acc}.m{fill:#f9f4f4}</style><path class="a" d="m427 187l57 11-48 14z"/><path class="b" d="m427 187l73-19-16 30z"/><path class="a" d="m427 187l59-81 14 62z"/><path class="c" d="m427 187l-67-33 57-67z"/><path class="b" d="m436 212l-98-20 89-5z"/><path class="d" d="m427 187l-10-100 69 19z"/><path class="a" d="m484 198l78 43-16 43z"/><path class="e" d="m500 168l62 73-78-43z"/><path class="f" d="m486 106l88 7-74 55z"/><path class="f" d="m427 187l-89 5 22-38z"/><path class="g" d="m484 198l62 86-110-72z"/><path class="a" d="m436 212l110 72-93 51z"/><path class="e" d="m360 154l11-62 46-5z"/><path class="f" d="m338 192l-75-58 97 20z"/><path class="c" d="m436 212l-39 95-83-54z"/><path class="h" d="m436 212l-6 117-33-22z"/><path class="h" d="m500 168l74-55 27 50z"/><path class="i" d="m417 87v-87l69 106z"/><path class="g" d="m436 212l17 123-23-6z"/><path class="b" d="m500 168l101-5-39 78z"/><path class="i" d="m562 241l39-78 43 101z"/><path class="d" d="m338 192l-24 61-94-55z"/><path class="i" d="m436 212l-122 41 24-61z"/><path class="c" d="m430 329l23 6-38 115z"/><path class="a" d="m371 92l-31-30 35-62z"/><path class="d" d="m360 154l-20-92 31 30z"/><path class="e" d="m417 87l-46 5 4-92z"/><path class="b" d="m546 284l70 12-26 81z"/><path class="d" d="m562 241l54 55-70-12z"/><path class="a" d="m486 106l-69-106h114z"/><path class="e" d="m574 113l60-13-33 63z"/><path class="a" d="m486 106l45-106 43 113z"/><path class="e" d="m601 163l33-63 50 46z"/><path class="f" d="m360 154l-97-20 77-72z"/><path class="f" d="m562 241l82 23-28 32z"/><path class="h" d="m453 335l47 53-49 62z"/><path class="d" d="m546 284l-46 104-47-53z"/><path class="b" d="m397 307l33 22-67 57z"/><path class="e" d="m574 113l-43-113h51z"/><path class="j" d="m417 87l-42-87h42z"/><path class="e" d="m263 134h-24l-20-83z"/><path class="j" d="m314 253l-54 22-40-77z"/><path class="b" d="m397 307l-34 79-50-22z"/><path class="a" d="m314 253l83 54-84 57z"/><path class="c" d="m340 62l-77 72-44-83z"/><path class="h" d="m338 192l-118 6 43-64z"/><path class="a" d="m314 253l-1 111-53-89z"/><path class="d" d="m574 113l8-113 52 100z"/><path class="k" d="m546 284l44 93-90 11z"/><path class="h" d="m644 264l20 67-48-35z"/><path class="h" d="m601 163l83-17-40 118z"/><path class="a" d="m582 0h66l-14 100z"/><path class="k" d="m263 134l-43 64 19-64z"/><path class="b" d="m616 296l48 35-74 46z"/><path class="d" d="m684 146l95 99-135 19z"/><path class="j" d="m340 62l-50-62h85z"/><path class="e" d="m453 335l-2 115h-36z"/><path class="a" d="m590 377l-82 73-8-62z"/><path class="f" d="m363 386l67-57-15 121z"/><path class="f" d="m363 386l52 64h-93z"/><path class="b" d="m500 388l8 62h-57z"/><path class="b" d="m664 331l59-20-13 57z"/><path class="k" d="m220 198l-31 32-10-103z"/><path class="k" d="m260 275l-71-45 31-32z"/><path class="d" d="m313 364l-124 26 71-115z"/><path class="j" d="m239 134l-19 64-41-71z"/><path class="d" d="m634 100l14-100h66z"/><path class="e" d="m340 62l-121-11 71-51z"/><path class="c" d="m260 275l-67 3-4-48z"/><path class="b" d="m363 386l-41 64-9-86z"/><path class="b" d="m239 134l-60-7 40-76z"/><path class="j" d="m193 278l-4 112-65-57z"/><path class="b" d="m313 364l9 86-133-60z"/><path class="g" d="m678 450l-14-119 46 37z"/><path class="e" d="m644 264l79 47-59 20z"/><path class="c" d="m590 377l29 73h-111z"/><path class="j" d="m590 377l74-46 14 119z"/><path class="i" d="m219 51l-17-51h88z"/><path class="c" d="m179 127l-58-81 98 5z"/><path class="g" d="m634 100l80-100-30 146z"/><path class="h" d="m684 146l30-146 58 43z"/><path class="d" d="m723 311l56-66 32 81z"/><path class="h" d="m644 264l135-19-56 66z"/><path class="h" d="m260 275l-71 115 4-112z"/><path class="b" d="m89 312l104-34-69 55z"/><path class="k" d="m684 146l100-24-5 123z"/><path class="f" d="m784 122l6 2 32 64z"/><path class="a" d="m684 146l88-103 12 79z"/><path class="c" d="m710 368l7 42-39 40z"/><path class="h" d="m723 311l88 15-101 42z"/><path class="i" d="m590 377l88 73h-59z"/><path class="b" d="m784 122l-12-79 18 81z"/><path class="h" d="m68 247l121-17 4 48z"/><path class="j" d="m68 247l125 31-104 34z"/><path class="h" d="m219 51l-98-5 81-46z"/><path class="j" d="m784 122l38 66-43 57z"/><path class="c" d="m772 43l91 29-73 52z"/><path class="h" d="m900 264l-78-76 78 36z"/><path class="e" d="m189 390v60l-51-42z"/><path class="f" d="m322 450h-133v-60z"/><path class="d" d="m121 46l-16 6 1-52z"/><path class="i" d="m179 127l-74-75 16-6z"/><path class="d" d="m717 410l94-84-33 124z"/><path class="i" d="m710 368l101-42-94 84z"/><path class="d" d="m189 390l-51 18-14-75z"/><path class="a" d="m66 136l123 94-121 17z"/><path class="i" d="m138 408l-31-21 17-54z"/><path class="d" d="m179 127l10 103-123-94z"/><path class="j" d="m121 46l-9-46h90z"/><path class="f" d="m179 127l-113 9 39-84z"/><path class="g" d="m0 140l66-4-66 48z"/><path class="e" d="m121 46l-15-46h6z"/><path class="d" d="m0 450l107-63-13 63z"/><path class="g" d="m124 333l-17 54-18-75z"/><path class="f" d="m189 450h-69l18-42z"/><path class="i" d="m717 410l61 40h-100z"/><path class="j" d="m822 188l-32-64 110-11z"/><path class="b" d="m790 124l73-52 37 41z"/><path class="k" d="m714 0h149l-91 43z"/><path class="i" d="m107 387l13 63h-26z"/><path class="c" d="m138 408l-18 42-13-63z"/><path class="i" d="m811 326l40 35-73 89z"/><path class="k" d="m822 188l78-21v57z"/><path class="e" d="m900 264l-121-19 43-57z"/><path class="k" d="m89 312l18 75-107-31z"/><path class="h" d="m811 326l-32-81 121 19z"/><path class="k" d="m863 72v-72h37z"/><path class="a" d="m772 43l91-43v72z"/><path class="h" d="m811 326l89-62v80z"/><path class="j" d="m822 188l78-75v54z"/><path class="g" d="m0 83l66 53-66 4z"/><path class="c" d="m68 247l-68-63 66-48z"/><path class="b" d="m89 312l-89 14 68-79z"/><path class="b" d="m105 52l-39 84-66-53z"/><path class="e" d="m105 52l-105 31v-83z"/><path class="b" d="m851 361l49-17v106z"/><path class="k" d="m811 326l89 18-49 17z"/><path class="i" d="m68 247l-68 79v-142z"/><path class="b" d="m851 361l11 89h-84z"/><path class="a" d="m863 72l37-72v113z"/><path class="b" d="m89 312l-89 44v-30z"/><path class="j" d="m105 52l-105-52h106z"/><path class="h" d="m851 361l49 89h-38z"/><path class="h" d="m107 387l-107 63v-94z"/><path class="l" d="m57.5 253.2h28.9l0.3-72.3-29-0.1zm28.1 0.1l28.7 0.1 0.2-72.4-28.6-0.1zm27.8 0.1l27 0.1 0.2-72.4h-27zm26.2 0l38.9 0.2 0.2-72.4-38.9-0.1zm37.8 0.1l24.5 0.1 0.2-72.4-24.5-0.1zm23.8 0.1l26 0.1 0.2-72.4h-25.9zm25.1 0l29.2 0.1 0.2-72.3-29.1-0.1zm28.3 0.1h16l0.3-72.3-16.1-0.1zm15.6 0.1h13l0.2-72.4h-13zm12.6 0l26.9 0.1 0.3-72.3-27-0.1zm26.2 0.1h16l0.3-72.4h-16.1zm15.6 0l28.2 0.1 0.2-72.3-28.2-0.1zm27.4 0.1l27 0.1 0.2-72.4-27-0.1zm26.2 0.1l38.9 0.1 0.2-72.3-38.8-0.2zm37.7 0.2h26l0.2-72.3-26-0.1zm25.2 0.1l29.8 0.1 0.2-72.4-29.7-0.1zm28.9 0.1l16 0.1 0.3-72.4h-16.1zm15.6 0l18.7 0.1 0.2-72.4-18.7-0.1zm18.2 0.1h16l0.3-72.3-16.1-0.1zm15.6 0.1l26 0.1 0.2-72.4-26-0.1zm25.3 0.1l29.8 0.1 0.2-72.4-29.8-0.1zm28.9 0.1l26.4 0.1 0.2-72.3-26.3-0.1zm25.6 0.1l28.6 0.1 0.3-72.4-28.7-0.1zm27.8 0.1l28 0.1 0.2-72.4-27.9-0.1zm27.1 0.1l13 0.1 0.2-72.4h-13zm12.6 0l27 0.1 0.2-72.4-26.9-0.1zm26.1 0.1l16.1 0.1 0.2-72.4h-16.1zm15.6 0l27.4 0.1 0.3-72.4h-27.5zm26.7 0l25.1 0.1 0.2-72.3-25.1-0.1zm24.4 0.1h28l0.2-72.3-28-0.1zm27.2 0.1l28.2 0.1 0.2-72.4-28.2-0.1zm27.4 0.1l28.7 0.1 0.2-72.4-28.6-0.1z"/><path class="m" d="m66.9 233.6h-6.8q-0.2 0-0.2-0.3l0.3-41.1q0-0.3 0.2-0.3h6.7q0.3 0 0.3 0.3l-0.1 14.2 9.5-14.2q0.2-0.3 0.4-0.3l6.9 0.1q0.3 0 0.1 0.2l-10.4 16.5 11.5 24.8q0.2 0.2-0.3 0.2h-7.3q-0.3 0-0.3-0.3l-8.1-17.6-2.1 3.3v14.3q0 0.2-0.3 0.2zm27.7 0.1h-6q-0.5 0-0.5-0.4l0.1-40.9q0-0.4 0.4-0.4h5.5l10 23.7-0.2-23.2q0-0.5 0.5-0.5h6q0.3 0 0.3 0.5l-0.1 40.9q0 0.4-0.2 0.4h-5.3l-10.3-22.2 0.3 21.7q0 0.4-0.5 0.4zm32.4 0.7q-3.2 0-5.9-1.6-2.7-1.7-4.3-4.4-1.6-2.8-1.6-6.1l0.1-19q0-3.3 1.6-6 1.6-2.7 4.3-4.3 2.7-1.6 5.9-1.6 3.3 0 5.9 1.6 2.6 1.7 4.2 4.4 1.6 2.7 1.6 6v19q0 3.3-1.6 6-1.6 2.8-4.3 4.4-2.7 1.6-5.9 1.6zm0-7.2q1.8 0 3.2-1.5 1.3-1.5 1.3-3.3v-19q0-2-1.2-3.4-1.3-1.4-3.2-1.4-1.9 0-3.2 1.4-1.3 1.3-1.3 3.4l-0.1 19q0 1.9 1.3 3.4 1.3 1.4 3.2 1.4zm27.9 6.7h-7.3q-0.3 0-0.3-0.3l-7-41.2q0-0.3 0.2-0.3l6.8 0.1q0.2 0 0.2 0.2l3.8 27.1 4-27.1q0.1-0.2 0.4-0.2h5.4q0.2 0 0.3 0.2l3.8 27.1 4-27q0.1-0.3 0.3-0.3h6.7q0.3 0 0.2 0.3l-7.3 41.2q0 0.1-0.2 0.2l-0.1 0.1-7.2-0.1q-0.2 0-0.3-0.2l-3-21.6-3.1 21.5q-0.1 0.3-0.3 0.3zm44.5 0.2l-19.4-0.1q-0.2 0-0.2-0.3l0.2-41.1q0-0.3 0.3-0.3h6.7q0.2 0 0.2 0.3l-0.1 34 12.3 0.1q0.3 0 0.3 0.3v6.8q0 0.3-0.3 0.3zm23.8 0h-19.4q-0.2 0-0.2-0.3l0.2-41.2q0-0.3 0.2-0.3l19.3 0.1q0.2 0 0.2 0.3v6.7q0 0.2-0.2 0.2h-12.3v9.4h12.3q0.2 0 0.2 0.2v6.8q0 0.3-0.2 0.3l-12.4-0.1v10.5l12.4 0.1q0.2 0 0.2 0.3v6.8q0 0.2-0.3 0.2zm16.6 0l-10.7 0.1q-0.3 0-0.3-0.3l0.3-41.3q0-0.2 0.2-0.2h11.2q3.3-0.1 6 1.5 2.8 1.7 4.4 4.4 1.6 2.7 1.6 6.1l-0.1 17.2q0 3.4-1.7 6.3-1.7 2.8-4.5 4.5-2.8 1.7-6.4 1.7zm0.7-34.5h-4.2l-0.2 27.2h3.8q2.2 0 3.7-1.5 1.6-1.6 1.6-3.7v-17.3q0-1.9-1.4-3.3-1.4-1.5-3.3-1.4zm39.3 34.7h-6.8q-0.3 0-0.3-0.3l0.2-41.2q0-0.2 0.2-0.2h6.8q0.2 0 0.2 0.2l-0.1 41.2q0 0.3-0.2 0.3zm15.7 0.7q-3.2-0.1-5.9-1.7-2.7-1.6-4.3-4.4-1.5-2.7-1.5-6v-2.8q0-0.3 0.3-0.3h6.7q0.2 0 0.2 0.3v2.8q0 2 1.3 3.4 1.4 1.4 3.2 1.4 1.9 0 3.2-1.4 1.3-1.5 1.3-3.4 0-2.2-2.8-3.8-0.5-0.3-1.3-0.7-0.7-0.5-1.7-1-1-0.6-2-1.1-1-0.6-1.9-1.1-3.2-1.9-4.8-4.8-1.6-3-1.6-6.6 0-3.3 1.6-6 1.7-2.7 4.3-4.2 2.7-1.6 5.8-1.6 3.2 0 5.9 1.6 2.6 1.6 4.2 4.3 1.6 2.7 1.6 6v4.9q0 0.2-0.3 0.2h-6.7q-0.2 0-0.2-0.2l-0.1-4.9q0-2.1-1.3-3.5-1.3-1.3-3.1-1.3-1.9 0-3.2 1.4-1.3 1.4-1.3 3.3 0 2 0.8 3.3 0.9 1.3 3.1 2.5 0.2 0.2 1.1 0.6 0.8 0.5 1.8 1.1 1.1 0.6 1.9 1 0.9 0.5 1.1 0.6 2.9 1.6 4.7 4.1 1.7 2.4 1.7 6 0 3.4-1.6 6.1-1.6 2.7-4.3 4.3-2.7 1.6-5.9 1.6zm38.5-0.5h-6.7q-0.3 0-0.3-0.3l0.3-41.2q0-0.3 0.2-0.3l11.5 0.1q5.5 0 8.7 3.4 3.2 3.3 3.2 9.1 0 4.2-1.7 7.3-1.7 3.1-4.4 4.8-2.7 1.7-5.9 1.7h-4.5l-0.1 15.1q0 0.3-0.3 0.3zm5-34.6h-4.6v11.9h4.6q1.9 0 3.3-1.8 1.4-1.8 1.4-4.7 0-2.4-1.2-3.9-1.3-1.5-3.5-1.5zm26.5 35.3q-3.2 0-5.9-1.7-2.6-1.6-4.3-4.4-1.6-2.7-1.6-6l0.1-19q0.1-3.4 1.7-6 1.6-2.7 4.3-4.3 2.7-1.6 5.8-1.6 3.3 0 5.9 1.6 2.7 1.6 4.2 4.4 1.6 2.7 1.6 6v19q0 3.3-1.6 6-1.6 2.7-4.3 4.4-2.6 1.6-5.9 1.6zm0-7.3q1.8 0.1 3.2-1.4 1.3-1.5 1.3-3.3l0.1-19.1q0-2-1.3-3.3-1.3-1.4-3.2-1.4-1.8 0-3.2 1.3-1.3 1.4-1.3 3.4v19q-0.1 2 1.3 3.4 1.3 1.4 3.1 1.4zm27.9 6.8h-7.3q-0.2 0-0.3-0.3l-6.9-41.3q-0.1-0.2 0.2-0.2h6.7q0.2 0 0.3 0.2l3.7 27.2 4.1-27.1q0-0.3 0.3-0.3l5.4 0.1q0.3 0 0.3 0.2l3.8 27.1 4-27.1q0.1-0.2 0.3-0.2h6.7q0.3 0 0.2 0.2l-7.2 41.2q-0.1 0.2-0.2 0.2l-0.1 0.1h-7.3q-0.2 0-0.3-0.3l-3-21.5-3.1 21.5q0 0.3-0.3 0.3zm44.6 0.1h-19.4q-0.3 0-0.3-0.3l0.2-41.3q0-0.2 0.2-0.2l19.3 0.1q0.3 0 0.3 0.3l-0.1 6.7q0 0.2-0.2 0.2h-12.3v9.3l12.3 0.1q0.2 0 0.2 0.2v6.8q0 0.3-0.2 0.3l-12.4-0.1v10.5h12.4q0.2 0 0.2 0.3v6.9q0 0.2-0.2 0.2zm12.5 0.1l-6.7-0.1q-0.3 0-0.3-0.2l0.3-41.3q0-0.2 0.2-0.2h12.1q3.3 0 6 1.6 2.7 1.6 4.3 4.3 1.7 2.7 1.6 6 0 2.2-0.6 4-0.7 1.8-1.6 3-0.9 1.3-1.6 1.8 3.2 3.7 3.2 8.5v12.3q0 0.3-0.3 0.3h-6.8q-0.2 0-0.2-0.2v-12.4q0-2.2-1.5-3.8-1.5-1.5-3.7-1.6h-4l-0.1 17.7q0 0.3-0.3 0.3zm5.6-34.6h-5.1l-0.1 9.4h5.2q1.8 0.1 3.3-1.3 1.4-1.4 1.4-3.4 0-1.9-1.4-3.3-1.4-1.4-3.3-1.4zm44.1 17.4l-11.6-0.1q-0.3 0-0.3-0.2v-6.5q0-0.3 0.3-0.3l11.6 0.1q0.3 0 0.3 0.2v6.5q0 0.3-0.3 0.3zm28.6 17.4h-6.7q-0.3 0-0.3-0.3l0.2-41.2q0-0.3 0.3-0.3l19.2 0.1q0.3 0 0.3 0.2l-0.1 6.8q0 0.2-0.2 0.2h-12.3v9.3l12.3 0.1q0.2 0 0.2 0.3v6.7q0 0.3-0.2 0.3l-12.3-0.1-0.1 17.6q0 0.3-0.3 0.3zm25.3 0.1h-6.8q-0.3 0-0.3-0.3l0.3-41.2q0-0.3 0.2-0.3l12.1 0.1q3.3 0 6 1.6 2.7 1.6 4.3 4.2 1.7 2.7 1.7 6.1-0.1 2.2-0.7 3.9-0.7 1.8-1.6 3.1-0.9 1.2-1.6 1.8 3.2 3.6 3.2 8.4v12.4q0 0.2-0.3 0.2h-6.8q-0.2 0-0.2-0.2v-12.4q0-2.1-1.5-3.7-1.5-1.6-3.7-1.6h-4l-0.1 17.6q0 0.3-0.2 0.3zm5.5-34.6h-5.1l-0.1 9.5h5.2q1.8 0 3.3-1.4 1.4-1.4 1.4-3.4 0.1-1.9-1.4-3.2-1.4-1.5-3.3-1.5zm14.3 34.4l7.6-41.2q0.1-0.3 0.3-0.3l8.7 0.1q0.2 0 0.3 0.2l7 41.2q0 0.3-0.2 0.3h-6.7q-0.3 0-0.3-0.3l-0.6-4.4h-8.2l-0.7 4.4q0 0.3-0.3 0.3h-6.6q-0.3 0-0.3-0.3zm14.9-10.8l-2.4-16.9-0.4-2.2-0.2 2.2-2.8 16.9zm19.3 11.1h-6q-0.5 0-0.5-0.4l0.1-40.9q0-0.4 0.5-0.4h5.4l10.1 23.7-0.3-23.2q0-0.5 0.6-0.5h5.9q0.4 0.1 0.4 0.5l-0.1 40.9q0 0.4-0.3 0.4h-5.3l-10.3-22.1 0.4 21.6q0 0.4-0.6 0.4zm32.3 0.7q-3.2 0-5.9-1.6-2.7-1.7-4.2-4.4-1.6-2.8-1.6-6.2l0.2-18.7q0-3.4 1.5-6.1 1.5-2.7 4.2-4.3 2.7-1.7 6-1.7 3.3 0 5.9 1.7 2.7 1.6 4.2 4.3 1.6 2.8 1.6 6.1v2.8q0 0.2-0.3 0.2h-6.7q-0.3 0-0.3-0.2l0.1-2.8q0-2-1.3-3.4-1.3-1.5-3.2-1.5-2.2 0-3.3 1.5-1.2 1.5-1.2 3.4v18.7q0 2.2 1.2 3.6 1.3 1.4 3.2 1.4 1.9 0 3.2-1.5 1.3-1.6 1.3-3.5v-2.7q0-0.3 0.2-0.3h6.8q0.3 0 0.3 0.3v2.8q0 3.3-1.6 6.1-1.7 2.8-4.3 4.4-2.6 1.6-6 1.6zm23.3-0.5h-6.8q-0.3 0-0.3-0.3l0.2-41.2q0-0.2 0.2-0.2h6.7q0.3 0 0.3 0.2l-0.1 41.2q0 0.3-0.2 0.3zm15.7 0.7q-3.2-0.1-5.9-1.7-2.7-1.6-4.3-4.4-1.6-2.7-1.6-6l0.1-2.8q0-0.3 0.2-0.3h6.8q0.2 0 0.2 0.4v2.7q0 2 1.3 3.4 1.3 1.4 3.2 1.4 1.9 0 3.2-1.4 1.3-1.5 1.3-3.4 0-2.2-2.9-3.8-0.4-0.3-1.2-0.7-0.7-0.5-1.7-1-1.1-0.6-2-1.1-1-0.6-1.9-1.1-3.3-1.9-4.9-4.8-1.5-3-1.5-6.6 0-3.3 1.6-6 1.7-2.7 4.3-4.2 2.7-1.6 5.8-1.6 3.2 0 5.8 1.6 2.7 1.6 4.3 4.3 1.6 2.7 1.6 6v4.9q0 0.2-0.3 0.2h-6.7q-0.3 0-0.3-0.2v-4.9q0-2.1-1.3-3.5-1.3-1.3-3.1-1.3-1.9 0-3.2 1.4-1.3 1.4-1.3 3.3 0 2 0.8 3.3 0.8 1.3 3 2.5 0.3 0.2 1.1 0.6 0.9 0.5 1.9 1.1 1.1 0.6 1.9 1 0.9 0.5 1 0.6 3 1.6 4.7 4.1 1.8 2.4 1.8 6 0 3.4-1.6 6.1-1.7 2.7-4.3 4.3-2.7 1.6-5.9 1.6zm42.5-0.5h-10.8q-0.2 0-0.2-0.3l0.2-41.2q0-0.3 0.3-0.3l11.5 0.1q3.4 0 6.1 1.6 2.7 1.7 4.3 4.4 1.5 2.7 1.5 5.9 0 2.5-1.2 4.8-1.2 2.2-2.8 3.6 1.7 1.7 2.7 4 1 2.3 0.9 4.8 0 3.5-1.6 6.3-1.8 2.9-4.6 4.6-2.8 1.7-6.3 1.7zm1-34.6h-4.6v9.4h4.6q2 0 3.3-1.4 1.3-1.5 1.3-3.3 0-1.9-1.3-3.3-1.4-1.4-3.3-1.4zm-1 16.7h-3.6l-0.1 10.6h3.7q2.2 0 3.7-1.6 1.6-1.6 1.6-3.7 0-2.2-1.6-3.8-1.5-1.5-3.7-1.5zm13.6 17.7l7.6-41.2q0-0.3 0.3-0.3l8.7 0.1q0.2 0 0.2 0.2l7.1 41.2q0 0.3-0.3 0.3h-6.6q-0.3 0-0.3-0.3l-0.7-4.4h-8.1l-0.7 4.4q0 0.3-0.3 0.3h-6.7q-0.2 0-0.2-0.3zm14.8-10.8l-2.4-16.9-0.3-2.2-0.3 2.2-2.7 16.9zm22.6 11.7q-3.3 0-6-1.6-2.6-1.7-4.2-4.4-1.5-2.8-1.5-6.2l0.1-18.7q0-3.4 1.5-6.1 1.6-2.7 4.2-4.3 2.7-1.7 6-1.7 3.4 0 6 1.7 2.6 1.6 4.1 4.3 1.6 2.8 1.6 6.1v2.8q0 0.2-0.2 0.2h-6.8q-0.2 0-0.2-0.2v-2.8q0-2-1.3-3.4-1.3-1.5-3.2-1.5-2.1 0-3.3 1.5-1.1 1.5-1.1 3.4l-0.1 18.7q0 2.2 1.3 3.6 1.3 1.4 3.1 1.4 1.9 0 3.2-1.5 1.3-1.6 1.3-3.5v-2.7q0-0.3 0.3-0.3h6.8q0.2 0 0.2 0.3v2.8q0 3.3-1.6 6.1-1.6 2.8-4.3 4.4-2.6 1.6-5.9 1.6zm27.2 0.1q-3.2 0-5.9-1.6-2.6-1.7-4.3-4.4-1.6-2.8-1.6-6.1l0.2-19q0-3.3 1.6-6 1.6-2.7 4.3-4.3 2.7-1.6 5.8-1.6 3.3 0 5.9 1.6 2.7 1.7 4.2 4.4 1.6 2.7 1.6 6v19q0 3.3-1.6 6-1.6 2.8-4.3 4.4-2.6 1.6-5.9 1.6zm0-7.2q1.8 0 3.2-1.5 1.3-1.5 1.4-3.3v-19q0-2-1.3-3.4-1.3-1.4-3.2-1.4-1.8 0-3.2 1.4-1.3 1.3-1.3 3.4v19q0 1.9 1.3 3.4 1.3 1.4 3.1 1.4zm22.8 6.7h-6q-0.4 0-0.4-0.4v-40.9q0-0.5 0.5-0.5l5.4 0.1 10.1 23.6-0.2-23.1q0-0.5 0.5-0.5h5.9q0.4 0 0.4 0.5l-0.1 40.9q0 0.4-0.3 0.4l-5.3-0.1-10.3-22.1 0.4 21.6q0 0.5-0.6 0.5z"/></svg>